<?xml version="1.0" standalone="no"?>
<!DOCTYPE svg PUBLIC "-//W3C//DTD SVG 20010904//EN"
 "http://www.w3.org/TR/2001/REC-SVG-20010904/DTD/svg10.dtd">
<svg version="1.0" xmlns="http://www.w3.org/2000/svg"
 width="192.000000pt" height="192.000000pt" viewBox="0 0 192.000000 192.000000"
 preserveAspectRatio="xMidYMid meet">
<metadata>
Created by potrace 1.14, written by Peter Selinger 2001-2017
</metadata>
<g transform="translate(0.000000,192.000000) scale(0.100000,-0.100000)"
fill="#000000" stroke="none">
<path d="M1468 1503 c-26 -16 -58 -76 -58 -108 0 -15 -7 -15 -118 14 -136 34
-152 17 -152 -151 l0 -118 -25 0 c-81 0 -188 -75 -215 -152 -13 -34 -15 -35
-69 -37 -31 0 -65 -3 -76 -5 -11 -3 -27 -5 -35 -6 -8 -1 -2 -6 14 -10 16 -5
33 -7 38 -4 4 3 8 0 8 -5 0 -6 9 -11 20 -11 40 0 73 -24 92 -69 21 -49 17 -61
-12 -43 -14 8 -20 9 -20 1 0 -6 -7 -3 -16 5 -8 9 -19 14 -24 11 -5 -3 -10 -1
-12 4 -1 5 -16 11 -33 13 -16 2 -36 9 -44 16 -8 8 -25 12 -37 9 -13 -2 -21 0
-18 4 5 8 -13 13 -43 12 -7 -1 -13 3 -13 7 0 4 -19 12 -41 19 -45 14 -176 6
-200 -11 -10 -7 -6 -8 13 -5 15 2 25 1 23 -4 -7 -11 32 -22 46 -13 8 4 9 3 5
-4 -4 -7 -2 -12 3 -12 18 0 26 5 23 13 -1 5 2 6 8 2 6 -3 8 -11 5 -16 -10 -15
26 -23 36 -8 8 11 9 10 7 -4 -2 -15 13 -24 77 -46 44 -16 109 -40 144 -55 71
-29 96 -33 85 -13 -4 7 -3 9 2 4 5 -5 10 -13 10 -18 1 -5 2 -12 3 -15 0 -4 9
0 18 7 11 10 14 10 9 2 -6 -12 5 -18 27 -14 4 0 7 -4 7 -10 0 -6 9 -9 20 -6
11 3 18 1 15 -3 -3 -5 5 -11 17 -15 13 -4 42 -15 65 -26 24 -10 47 -19 52 -19
5 0 11 -6 14 -14 10 -26 -91 -49 -138 -31 -11 4 -48 18 -83 31 -35 14 -68 21
-74 18 -6 -4 -9 -3 -5 2 7 12 -170 87 -189 80 -8 -3 -13 -2 -10 3 6 9 -46 34
-70 34 -8 0 -14 3 -14 7 0 9 -72 35 -89 31 -7 -1 -10 2 -6 8 3 7 -3 11 -15 11
-14 0 -19 -4 -14 -12 4 -8 3 -10 -2 -5 -5 5 -9 13 -9 19 0 6 -18 17 -40 25
-22 7 -54 20 -72 28 -41 20 -93 30 -93 19 0 -5 -21 -10 -48 -11 -26 -1 -56 -4
-67 -7 -11 -2 -27 -5 -35 -5 -15 -1 48 -39 72 -43 7 -2 15 -6 18 -9 9 -10 73
-39 87 -39 7 0 13 -3 13 -7 0 -9 49 -33 67 -33 7 0 13 -4 13 -10 0 -5 4 -10
10 -10 5 0 37 -13 71 -30 34 -16 66 -27 71 -24 4 3 7 0 6 -7 -2 -7 6 -15 17
-17 11 -2 31 -12 45 -22 14 -10 28 -18 33 -19 4 0 37 -16 75 -35 130 -65 238
-88 409 -87 65 0 113 -4 113 -10 0 -21 91 -5 200 35 l115 43 1 49 c2 80 34
134 71 119 10 -4 29 -9 43 -11 35 -7 41 -16 43 -61 1 -38 3 -40 27 -33 85 26
142 54 150 74 4 12 10 68 12 124 l4 102 -33 0 c-22 0 -37 7 -47 22 -32 45 -12
124 33 134 14 3 31 7 36 8 12 3 7 203 -6 228 -5 10 -22 20 -37 24 -82 18 -87
21 -99 75 -28 116 -128 180 -205 132z m135 -95 c16 -20 27 -45 28 -65 3 -79 2
-76 49 -88 60 -16 57 -15 80 -15 18 0 20 -7 20 -68 0 -65 -1 -68 -30 -81 -45
-19 -69 -74 -66 -147 3 -70 26 -111 69 -120 26 -6 27 -10 27 -63 l0 -56 -34 0
c-19 0 -32 3 -30 7 2 3 -9 11 -26 16 -16 6 -40 20 -52 32 -18 17 -34 20 -78
19 -51 -3 -167 21 -217 44 -12 5 -29 7 -37 4 -9 -4 -16 -1 -16 4 0 7 -9 9 -21
6 -12 -3 -18 -3 -15 1 5 4 -107 40 -132 42 -2 0 0 -6 3 -12 4 -7 0 -5 -9 5 -9
12 -29 19 -50 20 -19 0 -33 5 -30 9 3 4 -5 8 -17 8 -19 0 -21 4 -15 32 13 67
78 108 171 108 l55 0 0 140 0 140 28 0 c15 -1 68 -9 117 -19 58 -12 92 -15 96
-9 4 6 7 28 7 49 1 55 9 75 35 86 33 16 59 7 90 -29z m-735 -493 c-3 -3 -9 2
-12 12 -6 14 -5 15 5 6 7 -7 10 -15 7 -18z m231 -94 c27 -11 52 -17 55 -14 3
4 6 0 6 -7 0 -20 -84 -7 -116 19 -34 27 -12 28 55 2z m-989 -1 c0 -5 -2 -10
-4 -10 -3 0 -8 5 -11 10 -3 6 -1 10 4 10 6 0 11 -4 11 -10z m520 6 c0 -3 -4
-8 -10 -11 -5 -3 -10 -1 -10 4 0 6 5 11 10 11 6 0 10 -2 10 -4z m631 -43 c-9
-3 18 -16 59 -29 40 -13 77 -21 81 -18 5 3 9 0 9 -7 0 -7 3 -9 6 -6 4 3 15 2
25 -3 18 -10 18 -11 -1 -43 -10 -17 -22 -49 -25 -69 -4 -21 -11 -38 -16 -38
-5 0 -9 4 -9 9 0 12 -61 71 -74 71 -5 0 -27 8 -48 17 -35 16 -38 20 -38 58 0
40 14 66 35 64 5 0 3 -3 -4 -6z m-791 -37 c0 -3 -4 -8 -10 -11 -5 -3 -10 -1
-10 4 0 6 5 11 10 11 6 0 10 -2 10 -4z m357 -11 c0 -8 -4 -12 -9 -9 -5 3 -6
10 -3 15 9 13 12 11 12 -6z m123 5 c0 -5 -2 -10 -4 -10 -3 0 -8 5 -11 10 -3 6
-1 10 4 10 6 0 11 -4 11 -10z m40 -40 c0 -5 -2 -10 -4 -10 -3 0 -8 5 -11 10
-3 6 -1 10 4 10 6 0 11 -4 11 -10z m-320 -34 c0 -3 -4 -8 -10 -11 -5 -3 -10
-1 -10 4 0 6 5 11 10 11 6 0 10 -2 10 -4z"/>
</g>
</svg>
